<svg id="Layer_1" data-name="Layer 1" xmlns="http://www.w3.org/2000/svg" viewBox="0 0 584 128"><defs><style>.cls-1{fill:#fff;}</style></defs><title>logo_mayoroflondon</title><path class="cls-1" d="M574.87,85.63,554.75,59.46V85.63H544.66V42.31h9.13l20.12,26.5V42.31H584V85.63h-9.13Zm-59.19.91c-13,0-23-9.87-23-22.66s9.9-22.41,22.75-22.41,23,9.87,23,22.6S528.6,86.54,515.68,86.54Zm-.13-35.91a12.9,12.9,0,0,0-12.92,13.18,13.3,13.3,0,0,0,13.05,13.57c7.13,0,12.79-5.91,12.79-13.44s-5.53-13.31-12.92-13.31ZM472.27,84.85c-3,.71-5.53.85-13.31.85-2.89,0-5.79,0-8.74-.07V42.31H463c8.36,0,12.28,1,16.71,4.29A21.26,21.26,0,0,1,488,63.81a22.07,22.07,0,0,1-6.36,15.84,18.81,18.81,0,0,1-9.38,5.2Zm2.12-30.65c-2.76-2.53-6-3.5-12-3.5-.45,0-1.09,0-2.06.06v26.3h2.83a22.17,22.17,0,0,0,5.78-.45c5.79-1.3,9.32-6.11,9.32-12.73,0-4.09-1.35-7.4-3.86-9.68Zm-61.74,5.26V85.63H402.55V42.31h9.13l20.12,26.5V42.31h10.09V85.63h-9.13ZM373.58,86.54c-13,0-22.95-9.87-22.95-22.66s9.9-22.41,22.75-22.41,22.95,9.87,22.95,22.6S386.5,86.54,373.58,86.54Zm-.13-35.91a12.9,12.9,0,0,0-12.92,13.18,13.3,13.3,0,0,0,13,13.57c7.14,0,12.79-5.91,12.79-13.44s-5.53-13.31-12.92-13.31Zm-50.17-8.31h10.09V76.47h16.46v9.16H323.28Zm-37.36,16h13.43V67H285.92V85.63H275.76V42.31h27.06V51H285.92ZM246.4,86.54c-13,0-22.95-9.87-22.95-22.66s9.9-22.41,22.75-22.41,22.95,9.87,22.95,22.6S259.32,86.54,246.4,86.54Zm-.13-35.91a12.9,12.9,0,0,0-12.92,13.18,13.3,13.3,0,0,0,13,13.57c7.13,0,12.79-5.91,12.79-13.44S253.66,50.62,246.27,50.62Zm-49.76,35-10.8-16.36h-1.93V85.63h-10V42.31h10.61c7.07,0,9.58.65,13.11,3.18a12.44,12.44,0,0,1,4.82,10c0,4.94-2.31,8.7-7.07,11.5l12.47,18.64ZM190.4,51.34c-1.16-.78-2-.91-4.69-.91h-1.93v10.2h1.35c5.14,0,7.46-1.62,7.46-5.2A4.6,4.6,0,0,0,190.4,51.34Zm-46,35.2c-13,0-22.95-9.87-22.95-22.66s9.9-22.41,22.75-22.41,22.95,9.87,22.95,22.6S157.31,86.54,144.39,86.54Zm-.13-35.91a12.9,12.9,0,0,0-12.92,13.18,13.3,13.3,0,0,0,13,13.57c7.14,0,12.79-5.91,12.79-13.44S151.66,50.62,144.26,50.62Zm-36,35H98V68L83.24,42.31H94.75L103,58.48l8.23-16.17h11.57L108.25,68Zm-29.38,0-3-8.51H61.25l-2.76,8.51H47.56L63.38,42.31H73.59L89.86,85.63ZM68.52,54.2,64.14,68.35h8.74Zm-35,4.54-12,15.2L10,58.74V85.63H0V42.31H9.39L21.6,58.74l12-16.43h9.71V85.63H33.56Z"/></svg>