<svg data-name="Layer 1" xmlns="http://www.w3.org/2000/svg" viewBox="0 0 50 80.87"><path d="M25 0A25 25 0 0 0 3.06 37L25 80.87 46.94 37A25 25 0 0 0 25 0z" fill="#353d42"/><path d="M24.25 18.26v5.58h-5.87a6.72 6.72 0 0 1 5.87-5.58zm1.5 0v5.58h5.87a6.72 6.72 0 0 0-5.87-5.58zm-1.5 13.34v-6.26h-5.94a6.72 6.72 0 0 0 5.94 6.25zm1.5 0a6.72 6.72 0 0 0 5.94-6.26h-5.94zM41.58 25A16.58 16.58 0 1 1 25 8.42 16.58 16.58 0 0 1 41.58 25zm-4.64-.41a.75.75 0 0 0-.75-.75h-3.06a8.22 8.22 0 0 0-7.38-7.09v-3.36a.75.75 0 1 0-1.5 0v3.36a8.22 8.22 0 0 0-7.38 7.09h-3.06a.75.75 0 1 0 0 1.5h3a8.21 8.21 0 0 0 7.44 7.76v2.68a.75.75 0 0 0 1.5 0V33.1a8.22 8.22 0 0 0 7.44-7.76h3a.75.75 0 0 0 .75-.75z" fill="#fff"/></svg>